<svg width="50" height="50" viewBox="0 0 50 50" fill="none" xmlns="http://www.w3.org/2000/svg">
<path d="M0 13.9282C0 11.1668 2.23858 8.92822 5 8.92822H45C47.7614 8.92822 50 11.1668 50 13.9282V44.9996C50 47.7611 47.7614 49.9996 45 49.9996H5C2.23858 49.9996 0 47.7611 0 44.9996V13.9282Z" fill="white"/>
<path d="M0 13.9282C0 11.1668 2.23858 8.92822 5 8.92822H45C47.7614 8.92822 50 11.1668 50 13.9282V44.9996C50 47.7611 47.7614 49.9996 45 49.9996H5C2.23858 49.9996 0 47.7611 0 44.9996V13.9282Z" fill="white"/>
<path d="M0 13.9282C0 11.1668 2.23858 8.92822 5 8.92822H45C47.7614 8.92822 50 11.1668 50 13.9282V44.9996C50 47.7611 47.7614 49.9996 45 49.9996H5C2.23858 49.9996 0 47.7611 0 44.9996V13.9282Z" fill="white"/>
<path d="M0 5C0 2.23857 2.23858 0 5 0H20C22.7614 0 25 2.23858 25 5V11.0714C25 13.8329 22.7614 16.0714 20 16.0714H5C2.23858 16.0714 0 13.8329 0 11.0714V5Z" fill="white"/>
<path d="M0 5C0 2.23857 2.23858 0 5 0H20C22.7614 0 25 2.23858 25 5V11.0714C25 13.8329 22.7614 16.0714 20 16.0714H5C2.23858 16.0714 0 13.8329 0 11.0714V5Z" fill="white"/>
<path d="M0 5C0 2.23857 2.23858 0 5 0H20C22.7614 0 25 2.23858 25 5V11.0714C25 13.8329 22.7614 16.0714 20 16.0714H5C2.23858 16.0714 0 13.8329 0 11.0714V5Z" fill="white"/>
<rect x="21.7107" y="16.0718" width="6.57895" height="26.7857" fill="#2D46C8"/>
<rect x="15.1316" y="33.9282" width="8.92857" height="19.7368" transform="rotate(-90 15.1316 33.9282)" fill="#2D46C8"/>
</svg>
