<svg width="50" height="50" viewBox="0 0 50 50" fill="none" xmlns="http://www.w3.org/2000/svg">
<path d="M13.346 6.75592C13.346 7.0989 13.0217 7.70422 11.8131 8.283C10.6774 8.82692 9.038 9.19103 7.173 9.19103C5.30799 9.19103 3.66864 8.82692 2.53284 8.283C1.32428 7.70422 1 7.0989 1 6.75592C1 6.41293 1.32428 5.80761 2.53284 5.22883C3.66864 4.68491 5.30799 4.3208 7.173 4.3208C9.038 4.3208 10.6774 4.68491 11.8131 5.22883C13.0217 5.80761 13.346 6.41293 13.346 6.75592Z" stroke="white" stroke-width="2"/>
<path d="M13.346 30.8018C13.346 31.1448 13.0217 31.7501 11.8131 32.3289C10.6774 32.8728 9.038 33.2369 7.173 33.2369C5.30799 33.2369 3.66864 32.8728 2.53284 32.3289C1.32428 31.7501 1 31.1448 1 30.8018C1 30.4588 1.32428 29.8535 2.53284 29.2747C3.66864 28.7308 5.30799 28.3667 7.173 28.3667C9.038 28.3667 10.6774 28.7308 11.8131 29.2747C13.0217 29.8535 13.346 30.4588 13.346 30.8018Z" stroke="white" stroke-width="2"/>
<path d="M13.346 37.2906C13.346 37.6336 13.0217 38.2389 11.8131 38.8177C10.6774 39.3616 9.038 39.7257 7.173 39.7257C5.30799 39.7257 3.66864 39.3616 2.53284 38.8177C1.32428 38.2389 1 37.6336 1 37.2906C1 36.9476 1.32428 36.3423 2.53284 35.7635C3.66864 35.2196 5.30799 34.8555 7.173 34.8555C9.038 34.8555 10.6774 35.2196 11.8131 35.7635C13.0217 36.3423 13.346 36.9476 13.346 37.2906Z" stroke="white" stroke-width="2"/>
<path d="M13.346 43.0157C13.346 43.3587 13.0217 43.964 11.8131 44.5428C10.6774 45.0867 9.038 45.4508 7.173 45.4508C5.30799 45.4508 3.66864 45.0867 2.53284 44.5428C1.32428 43.964 1 43.3587 1 43.0157C1 42.6727 1.32428 42.0674 2.53284 41.4886C3.66864 40.9447 5.30799 40.5806 7.173 40.5806C9.038 40.5806 10.6774 40.9447 11.8131 41.4886C13.0217 42.0674 13.346 42.6727 13.346 43.0157Z" stroke="white" stroke-width="2"/>
<path d="M13.346 24.6949C13.346 25.0379 13.0217 25.6432 11.8131 26.222C10.6774 26.7659 9.038 27.13 7.173 27.13C5.30799 27.13 3.66864 26.7659 2.53284 26.222C1.32428 25.6432 1 25.0379 1 24.6949C1 24.3519 1.32428 23.7466 2.53284 23.1678C3.66864 22.6239 5.30799 22.2598 7.173 22.2598C9.038 22.2598 10.6774 22.6239 11.8131 23.1678C13.0217 23.7466 13.346 24.3519 13.346 24.6949Z" stroke="white" stroke-width="2"/>
<path d="M13.346 18.9698C13.346 19.3128 13.0217 19.9181 11.8131 20.4969C10.6774 21.0408 9.038 21.4049 7.173 21.4049C5.30799 21.4049 3.66864 21.0408 2.53284 20.4969C1.32428 19.9181 1 19.3128 1 18.9698C1 18.6268 1.32428 18.0215 2.53284 17.4427C3.66864 16.8988 5.30799 16.5347 7.173 16.5347C9.038 16.5347 10.6774 16.8988 11.8131 17.4427C13.0217 18.0215 13.346 18.6268 13.346 18.9698Z" stroke="white" stroke-width="2"/>
<path d="M13.346 12.4815C13.346 12.8245 13.0217 13.4298 11.8131 14.0086C10.6774 14.5525 9.038 14.9166 7.173 14.9166C5.30799 14.9166 3.66864 14.5525 2.53284 14.0086C1.32428 13.4298 1 12.8245 1 12.4815C1 12.1385 1.32428 11.5332 2.53284 10.9544C3.66864 10.4105 5.30799 10.0464 7.173 10.0464C9.038 10.0464 10.6774 10.4105 11.8131 10.9544C13.0217 11.5332 13.346 12.1385 13.346 12.4815Z" stroke="white" stroke-width="2"/>
<path d="M7.80591 0H45C47.7614 0 50 2.23858 50 5V45C50 47.7614 47.7614 50 45 50H7.80591V0Z" fill="white"/>
<path d="M7.80591 0H47.8903C49.0555 0 50 0.854418 50 1.9084V48.0916C50 49.1456 49.0555 50 47.8903 50H7.80591V0Z" fill="white"/>
<rect x="26" y="15" width="5" height="18" fill="#2D46C8"/>
<rect x="19" y="26" width="5" height="19" transform="rotate(-90 19 26)" fill="#2D46C8"/>
</svg>
