<svg width="52" height="51" viewBox="0 0 52 51" fill="none" xmlns="http://www.w3.org/2000/svg">
<path d="M25.7253 50H7.95972H4.23887C2.45009 50 1 48.5499 1 46.7611C1 44.9724 2.45009 43.5223 4.23887 43.5223H10.707V16.3267C10.707 14.9502 11.2744 13.6346 12.2756 12.69L17.294 7.9551C20.4833 4.94594 25.7253 7.20703 25.7253 11.5918V50Z" fill="white" stroke="#FEFEFE" stroke-width="0.5"/>
<path d="M36.1099 9.10925H25.7254L25.7253 16.3967H28.967C31.7285 16.3967 33.967 18.6353 33.967 21.3967V49.9999H47.3563C49.3687 49.9999 51 48.3686 51 46.3562C51 44.3438 49.3687 42.7125 47.3563 42.7125H41.1099V14.1093C41.1099 11.3478 38.8713 9.10925 36.1099 9.10925Z" fill="white" stroke="white" stroke-width="0.5"/>
<ellipse cx="20.4138" cy="29.3522" rx="2.01466" ry="3.03644" fill="#061A40"/>
</svg>
