<svg width="60" height="47" viewBox="0 0 60 47" fill="none" xmlns="http://www.w3.org/2000/svg">
<path d="M0 40.9038C0 32.6195 6.71573 25.9038 15 25.9038V25.9038C23.2843 25.9038 30 32.6195 30 40.9038V46.3857H0V40.9038Z" fill="white"/>
<path d="M23.1429 12.0482C23.1429 18.7022 19.3053 24.0964 14.5714 24.0964C9.83756 24.0964 6 18.7022 6 12.0482C6 5.39416 9.83756 0 14.5714 0C19.3053 0 23.1429 5.39416 23.1429 12.0482Z" fill="white"/>
<path d="M30 40.9038C30 32.6195 36.7157 25.9038 45 25.9038V25.9038C53.2843 25.9038 60 32.6195 60 40.9038V46.3857H30V40.9038Z" fill="white"/>
<path d="M53.1429 12.0482C53.1429 18.7022 49.3053 24.0964 44.5714 24.0964C39.8376 24.0964 36 18.7022 36 12.0482C36 5.39416 39.8376 0 44.5714 0C49.3053 0 53.1429 5.39416 53.1429 12.0482Z" fill="white"/>
</svg>
